<svg width="98" height="29" viewBox="0 0 98 29" fill="none" xmlns="http://www.w3.org/2000/svg">
<path d="M0.1875 3.5293H4.17188V28H0.1875V3.5293ZM7.55859 3.5293C9.61719 3.5293 11.4212 3.86133 12.9707 4.52539C14.5423 5.16732 15.8372 6.0306 16.8555 7.11523C17.8958 8.19987 18.6706 9.43945 19.1797 10.834C19.6888 12.2064 19.9434 13.623 19.9434 15.084C19.9434 17.0983 19.722 18.8249 19.2793 20.2637C18.8587 21.6803 18.3164 22.8757 17.6523 23.8496C16.9883 24.8014 16.2357 25.554 15.3945 26.1074C14.5755 26.6608 13.7786 27.0814 13.0039 27.3691C12.2292 27.6348 11.5208 27.8118 10.8789 27.9004C10.237 27.9668 9.76107 28 9.45117 28H5.5332V25.0781H8.12305C10.8236 25.0781 12.7715 24.2148 13.9668 22.4883C15.1621 20.7617 15.7598 18.2604 15.7598 14.9844C15.7598 13.9661 15.638 12.959 15.3945 11.9629C15.151 10.9668 14.6751 10.0703 13.9668 9.27344C13.2806 8.45443 12.3398 7.80143 11.1445 7.31445C9.94922 6.80534 8.39974 6.55078 6.49609 6.55078H5.5332V3.5293H7.55859ZM26.6278 9.27344L27.0595 11.1992V21.3594V21.4258V28H23.0419V9.27344H26.6278ZM28.4208 10.1035C28.9742 9.79362 29.6382 9.5612 30.413 9.40625C31.1877 9.22917 32.2391 9.14062 33.5673 9.14062V13.3242C32.9475 13.1471 32.1949 13.0475 31.3095 13.0254C30.8225 13.0254 30.3244 13.0697 29.8153 13.1582C29.3283 13.2246 28.8635 13.3353 28.4208 13.4902V10.1035ZM38.7244 22.3555C38.7244 23.3516 38.9236 24.0931 39.322 24.5801C39.7426 25.0671 40.3403 25.3548 41.115 25.4434V28.1328C41.0265 28.1549 40.8826 28.166 40.6834 28.166C39.9308 28.166 39.2003 28.0664 38.492 27.8672C37.8058 27.668 37.197 27.347 36.6658 26.9043C36.1345 26.4616 35.714 25.875 35.4041 25.1445C35.1163 24.4141 34.9724 23.5176 34.9724 22.4551C34.9724 21.4368 35.1827 20.5625 35.6033 19.832C36.046 19.0794 36.5994 18.4707 37.2634 18.0059C37.9496 17.5189 38.7244 17.1647 39.5877 16.9434C40.4509 16.6999 41.3253 16.5781 42.2107 16.5781H43.6716V18.9355H42.9412C42.4985 18.9355 42.0336 18.9798 41.5466 19.0684C41.0597 19.1569 40.6059 19.3229 40.1853 19.5664C39.7647 19.8099 39.4106 20.1641 39.1228 20.6289C38.8572 21.0716 38.7244 21.6471 38.7244 22.3555ZM49.0505 22.4551C49.0505 22.6322 49.0616 22.8978 49.0837 23.252C49.1059 23.584 49.1502 23.9271 49.2166 24.2812C49.283 24.6354 49.3826 24.9564 49.5154 25.2441C49.6703 25.5319 49.8696 25.7201 50.113 25.8086L49.0505 28.0332C48.7628 28.0332 48.4529 27.9668 48.1209 27.834C47.811 27.7012 47.5011 27.513 47.1912 27.2695C46.9034 27.026 46.6489 26.7604 46.4275 26.4727C46.2283 26.1628 46.0733 25.8307 45.9627 25.4766C45.7413 26.0299 45.2986 26.528 44.6345 26.9707C43.9926 27.3913 43.2732 27.7012 42.4763 27.9004V25.377C43.0076 25.2663 43.4835 25.056 43.9041 24.7461C44.3468 24.4141 44.7231 24.0267 45.033 23.584V16.5781C45.033 15.4935 44.9776 14.6302 44.867 13.9883C44.7563 13.3464 44.5681 12.8815 44.3025 12.5938C44.0369 12.2839 43.7048 12.0957 43.3064 12.0293C42.9301 11.9408 42.4763 11.8965 41.9451 11.8965C41.4581 11.8965 40.9933 11.9629 40.5505 12.0957C40.13 12.2064 39.7315 12.3503 39.3552 12.5273C39.0011 12.6823 38.6801 12.8594 38.3923 13.0586C38.1267 13.2578 37.9275 13.4128 37.7947 13.5234L36.3005 11.2324C36.5219 10.9889 36.8539 10.7454 37.2966 10.502C37.7393 10.2363 38.2485 10.0039 38.824 9.80469C39.3995 9.60547 40.0193 9.45052 40.6834 9.33984C41.3696 9.20703 42.0779 9.14062 42.8084 9.14062C43.4724 9.14062 44.1143 9.20703 44.7341 9.33984C45.3761 9.47266 45.9516 9.69401 46.4607 10.0039C46.992 10.3138 47.4457 10.7344 47.822 11.2656C48.2205 11.7747 48.4972 12.4167 48.6521 13.1914C48.8071 13.9661 48.9067 14.752 48.9509 15.5488C49.0173 16.3236 49.0505 17.0983 49.0505 17.873V22.1895V22.4551ZM74.2623 9.27344H78.612L73.3327 28.1328H68.153L66.1608 20.3965V9.27344H67.6217L70.776 24.8789L74.2623 9.27344ZM59.7858 24.8789L63.2721 9.27344H64.7995V19.4004L62.4088 28.1328H57.1959L52.3815 9.27344H56.6979L59.7858 24.8789ZM85.4292 28H81.3784V9.27344H85.4292V28ZM85.7944 3.29688C85.7944 3.96094 85.562 4.52539 85.0972 4.99023C84.6323 5.43294 84.0679 5.6543 83.4038 5.6543C82.7398 5.6543 82.1753 5.42188 81.7105 4.95703C81.2678 4.49219 81.0464 3.9388 81.0464 3.29688C81.0464 2.63281 81.2788 2.06836 81.7437 1.60352C82.2085 1.13867 82.7619 0.90625 83.4038 0.90625C84.0679 0.90625 84.6323 1.13867 85.0972 1.60352C85.562 2.06836 85.7944 2.63281 85.7944 3.29688ZM94.0395 22.3223C94.0395 23.0749 94.1391 23.6615 94.3383 24.082C94.5375 24.5026 94.8142 24.8236 95.1684 25.0449C95.5447 25.2663 95.9542 25.4102 96.3969 25.4766C96.8617 25.5208 97.3487 25.543 97.8578 25.543V28C97.5701 28.0443 97.2823 28.0775 96.9945 28.0996C96.751 28.1217 96.4522 28.1328 96.098 28.1328C95.766 28.1549 95.434 28.166 95.102 28.166C94.7699 28.166 94.4268 28.1549 94.0727 28.1328C93.7406 28.1107 93.4529 28.0775 93.2094 28.0332C92.4568 27.9004 91.8702 27.5794 91.4496 27.0703C91.029 26.5391 90.7081 25.9635 90.4867 25.3438C90.2875 24.7018 90.1547 24.082 90.0883 23.4844C90.044 22.8867 90.0219 22.4219 90.0219 22.0898V11.9961H87.5648V9.27344H90.0219V3.96094H94.0395V9.27344H97.0277V11.9961H94.0395V22.3223Z" fill="url(#paint0_linear_4_2)"/>
<defs>
<linearGradient id="paint0_linear_4_2" x1="-3" y1="2.5" x2="102.825" y2="23.9251" gradientUnits="userSpaceOnUse">
<stop stop-color="#006EFF"/>
<stop offset="1" stop-color="#6F9DDA"/>
</linearGradient>
</defs>
</svg>
